<?xml version="1.0" encoding="utf-8"?>
<svg xmlns="http://www.w3.org/2000/svg" xmlns:xlink="http://www.w3.org/1999/xlink" style="margin: auto; background: rgb(15, 128, 193); display: block; z-index: 1; position: relative; shape-rendering: auto;" width="1707" height="867" preserveAspectRatio="xMidYMid" viewBox="0 0 1707 867">
<g transform="translate(853.5,433.5) scale(1,1) translate(-853.5,-433.5)"><g transform="translate(-100 813.0821054477102) rotate(0)">
  <animateTransform attributeName="transform" type="translate" keyTimes="0;1" values="-100 813.0821054477102;1707 813.0821054477102" dur="66.66666666666667s" repeatCount="indefinite" begin="-38.19355142304037s"></animateTransform>
  <path d="M84.717,33.597c0.791-2.503,1.186-5.138,1.186-7.773C85.903,11.594,74.308,0,60.079,0 c-9.881,0-18.445,5.534-22.793,13.702c-1.581-0.527-3.426-0.791-5.138-0.791c-9.486,0-17.128,7.642-17.128,17.128 c0,1.186,0.132,2.372,0.395,3.426C6.719,34.783,0,42.424,0,51.515C0,61.66,8.169,69.829,18.314,69.829h63.373 C91.831,69.829,100,61.66,100,51.515C99.868,42.556,93.281,35.046,84.717,33.597z" fill="#bddeff" transform="scale(0.55)"></path>
</g><g transform="translate(-100 656.4376148174406) rotate(0)">
  <animateTransform attributeName="transform" type="translate" keyTimes="0;1" values="-100 656.4376148174406;1707 656.4376148174406" dur="66.66666666666667s" repeatCount="indefinite" begin="-52.53082587983529s"></animateTransform>
  <path d="M84.717,33.597c0.791-2.503,1.186-5.138,1.186-7.773C85.903,11.594,74.308,0,60.079,0 c-9.881,0-18.445,5.534-22.793,13.702c-1.581-0.527-3.426-0.791-5.138-0.791c-9.486,0-17.128,7.642-17.128,17.128 c0,1.186,0.132,2.372,0.395,3.426C6.719,34.783,0,42.424,0,51.515C0,61.66,8.169,69.829,18.314,69.829h63.373 C91.831,69.829,100,61.66,100,51.515C99.868,42.556,93.281,35.046,84.717,33.597z" fill="#bddeff" transform="scale(0.55)"></path>
</g><g transform="translate(-100 266.7155562307969) rotate(0)">
  <animateTransform attributeName="transform" type="translate" keyTimes="0;1" values="-100 266.7155562307969;1707 266.7155562307969" dur="66.66666666666667s" repeatCount="indefinite" begin="-6.7320752448365s"></animateTransform>
  <path d="M84.717,33.597c0.791-2.503,1.186-5.138,1.186-7.773C85.903,11.594,74.308,0,60.079,0 c-9.881,0-18.445,5.534-22.793,13.702c-1.581-0.527-3.426-0.791-5.138-0.791c-9.486,0-17.128,7.642-17.128,17.128 c0,1.186,0.132,2.372,0.395,3.426C6.719,34.783,0,42.424,0,51.515C0,61.66,8.169,69.829,18.314,69.829h63.373 C91.831,69.829,100,61.66,100,51.515C99.868,42.556,93.281,35.046,84.717,33.597z" fill="#bddeff" transform="scale(0.55)"></path>
</g><g transform="translate(-100 201.55232569889608) rotate(0)">
  <animateTransform attributeName="transform" type="translate" keyTimes="0;1" values="-100 201.55232569889608;1707 201.55232569889608" dur="66.66666666666667s" repeatCount="indefinite" begin="-27.146759793234313s"></animateTransform>
  <path d="M84.717,33.597c0.791-2.503,1.186-5.138,1.186-7.773C85.903,11.594,74.308,0,60.079,0 c-9.881,0-18.445,5.534-22.793,13.702c-1.581-0.527-3.426-0.791-5.138-0.791c-9.486,0-17.128,7.642-17.128,17.128 c0,1.186,0.132,2.372,0.395,3.426C6.719,34.783,0,42.424,0,51.515C0,61.66,8.169,69.829,18.314,69.829h63.373 C91.831,69.829,100,61.66,100,51.515C99.868,42.556,93.281,35.046,84.717,33.597z" fill="#bddeff" transform="scale(0.55)"></path>
</g><g transform="translate(-100 289.15313423102435) rotate(0)">
  <animateTransform attributeName="transform" type="translate" keyTimes="0;1" values="-100 289.15313423102435;1707 289.15313423102435" dur="66.66666666666667s" repeatCount="indefinite" begin="-21.612355773842353s"></animateTransform>
  <path d="M84.717,33.597c0.791-2.503,1.186-5.138,1.186-7.773C85.903,11.594,74.308,0,60.079,0 c-9.881,0-18.445,5.534-22.793,13.702c-1.581-0.527-3.426-0.791-5.138-0.791c-9.486,0-17.128,7.642-17.128,17.128 c0,1.186,0.132,2.372,0.395,3.426C6.719,34.783,0,42.424,0,51.515C0,61.66,8.169,69.829,18.314,69.829h63.373 C91.831,69.829,100,61.66,100,51.515C99.868,42.556,93.281,35.046,84.717,33.597z" fill="#bddeff" transform="scale(0.55)"></path>
</g><g transform="translate(-100 660.7889137378459) rotate(0)">
  <animateTransform attributeName="transform" type="translate" keyTimes="0;1" values="-100 660.7889137378459;1707 660.7889137378459" dur="66.66666666666667s" repeatCount="indefinite" begin="-50.595739677065175s"></animateTransform>
  <path d="M84.717,33.597c0.791-2.503,1.186-5.138,1.186-7.773C85.903,11.594,74.308,0,60.079,0 c-9.881,0-18.445,5.534-22.793,13.702c-1.581-0.527-3.426-0.791-5.138-0.791c-9.486,0-17.128,7.642-17.128,17.128 c0,1.186,0.132,2.372,0.395,3.426C6.719,34.783,0,42.424,0,51.515C0,61.66,8.169,69.829,18.314,69.829h63.373 C91.831,69.829,100,61.66,100,51.515C99.868,42.556,93.281,35.046,84.717,33.597z" fill="#bddeff" transform="scale(0.55)"></path>
</g><g transform="translate(-100 738.4725957759966) rotate(0)">
  <animateTransform attributeName="transform" type="translate" keyTimes="0;1" values="-100 738.4725957759966;1707 738.4725957759966" dur="66.66666666666667s" repeatCount="indefinite" begin="-62.6586418044102s"></animateTransform>
  <path d="M84.717,33.597c0.791-2.503,1.186-5.138,1.186-7.773C85.903,11.594,74.308,0,60.079,0 c-9.881,0-18.445,5.534-22.793,13.702c-1.581-0.527-3.426-0.791-5.138-0.791c-9.486,0-17.128,7.642-17.128,17.128 c0,1.186,0.132,2.372,0.395,3.426C6.719,34.783,0,42.424,0,51.515C0,61.66,8.169,69.829,18.314,69.829h63.373 C91.831,69.829,100,61.66,100,51.515C99.868,42.556,93.281,35.046,84.717,33.597z" fill="#bddeff" transform="scale(0.55)"></path>
</g><g transform="translate(-100 447.66565714298196) rotate(0)">
  <animateTransform attributeName="transform" type="translate" keyTimes="0;1" values="-100 447.66565714298196;1707 447.66565714298196" dur="66.66666666666667s" repeatCount="indefinite" begin="-3.016663537150155s"></animateTransform>
  <path d="M84.717,33.597c0.791-2.503,1.186-5.138,1.186-7.773C85.903,11.594,74.308,0,60.079,0 c-9.881,0-18.445,5.534-22.793,13.702c-1.581-0.527-3.426-0.791-5.138-0.791c-9.486,0-17.128,7.642-17.128,17.128 c0,1.186,0.132,2.372,0.395,3.426C6.719,34.783,0,42.424,0,51.515C0,61.66,8.169,69.829,18.314,69.829h63.373 C91.831,69.829,100,61.66,100,51.515C99.868,42.556,93.281,35.046,84.717,33.597z" fill="#bddeff" transform="scale(0.55)"></path>
</g><g transform="translate(-100 52.50698472128209) rotate(0)">
  <animateTransform attributeName="transform" type="translate" keyTimes="0;1" values="-100 52.50698472128209;1707 52.50698472128209" dur="66.66666666666667s" repeatCount="indefinite" begin="-31.574687089259747s"></animateTransform>
  <path d="M84.717,33.597c0.791-2.503,1.186-5.138,1.186-7.773C85.903,11.594,74.308,0,60.079,0 c-9.881,0-18.445,5.534-22.793,13.702c-1.581-0.527-3.426-0.791-5.138-0.791c-9.486,0-17.128,7.642-17.128,17.128 c0,1.186,0.132,2.372,0.395,3.426C6.719,34.783,0,42.424,0,51.515C0,61.66,8.169,69.829,18.314,69.829h63.373 C91.831,69.829,100,61.66,100,51.515C99.868,42.556,93.281,35.046,84.717,33.597z" fill="#bddeff" transform="scale(0.55)"></path>
</g><g transform="translate(-100 810.4991800590379) rotate(0)">
  <animateTransform attributeName="transform" type="translate" keyTimes="0;1" values="-100 810.4991800590379;1707 810.4991800590379" dur="66.66666666666667s" repeatCount="indefinite" begin="-63.68000349715912s"></animateTransform>
  <path d="M84.717,33.597c0.791-2.503,1.186-5.138,1.186-7.773C85.903,11.594,74.308,0,60.079,0 c-9.881,0-18.445,5.534-22.793,13.702c-1.581-0.527-3.426-0.791-5.138-0.791c-9.486,0-17.128,7.642-17.128,17.128 c0,1.186,0.132,2.372,0.395,3.426C6.719,34.783,0,42.424,0,51.515C0,61.66,8.169,69.829,18.314,69.829h63.373 C91.831,69.829,100,61.66,100,51.515C99.868,42.556,93.281,35.046,84.717,33.597z" fill="#bddeff" transform="scale(0.55)"></path>
</g><g transform="translate(-100 814.3203350726242) rotate(0)">
  <animateTransform attributeName="transform" type="translate" keyTimes="0;1" values="-100 814.3203350726242;1707 814.3203350726242" dur="66.66666666666667s" repeatCount="indefinite" begin="-12.486009305059373s"></animateTransform>
  <path d="M84.717,33.597c0.791-2.503,1.186-5.138,1.186-7.773C85.903,11.594,74.308,0,60.079,0 c-9.881,0-18.445,5.534-22.793,13.702c-1.581-0.527-3.426-0.791-5.138-0.791c-9.486,0-17.128,7.642-17.128,17.128 c0,1.186,0.132,2.372,0.395,3.426C6.719,34.783,0,42.424,0,51.515C0,61.66,8.169,69.829,18.314,69.829h63.373 C91.831,69.829,100,61.66,100,51.515C99.868,42.556,93.281,35.046,84.717,33.597z" fill="#bddeff" transform="scale(0.55)"></path>
</g><g transform="translate(-100 428.94388438660496) rotate(0)">
  <animateTransform attributeName="transform" type="translate" keyTimes="0;1" values="-100 428.94388438660496;1707 428.94388438660496" dur="33.333333333333336s" repeatCount="indefinite" begin="-8.12540794584232s"></animateTransform>
  <path d="M84.717,33.597c0.791-2.503,1.186-5.138,1.186-7.773C85.903,11.594,74.308,0,60.079,0 c-9.881,0-18.445,5.534-22.793,13.702c-1.581-0.527-3.426-0.791-5.138-0.791c-9.486,0-17.128,7.642-17.128,17.128 c0,1.186,0.132,2.372,0.395,3.426C6.719,34.783,0,42.424,0,51.515C0,61.66,8.169,69.829,18.314,69.829h63.373 C91.831,69.829,100,61.66,100,51.515C99.868,42.556,93.281,35.046,84.717,33.597z" fill="#ffffff" transform="scale(0.7)"></path>
</g><g transform="translate(-100 714.2591213224656) rotate(0)">
  <animateTransform attributeName="transform" type="translate" keyTimes="0;1" values="-100 714.2591213224656;1707 714.2591213224656" dur="33.333333333333336s" repeatCount="indefinite" begin="-14.15575535140783s"></animateTransform>
  <path d="M84.717,33.597c0.791-2.503,1.186-5.138,1.186-7.773C85.903,11.594,74.308,0,60.079,0 c-9.881,0-18.445,5.534-22.793,13.702c-1.581-0.527-3.426-0.791-5.138-0.791c-9.486,0-17.128,7.642-17.128,17.128 c0,1.186,0.132,2.372,0.395,3.426C6.719,34.783,0,42.424,0,51.515C0,61.66,8.169,69.829,18.314,69.829h63.373 C91.831,69.829,100,61.66,100,51.515C99.868,42.556,93.281,35.046,84.717,33.597z" fill="#ffffff" transform="scale(0.7)"></path>
</g><g transform="translate(-100 0.3361548577584721) rotate(0)">
  <animateTransform attributeName="transform" type="translate" keyTimes="0;1" values="-100 0.3361548577584721;1707 0.3361548577584721" dur="33.333333333333336s" repeatCount="indefinite" begin="-47.67510880996562s"></animateTransform>
  <path d="M84.717,33.597c0.791-2.503,1.186-5.138,1.186-7.773C85.903,11.594,74.308,0,60.079,0 c-9.881,0-18.445,5.534-22.793,13.702c-1.581-0.527-3.426-0.791-5.138-0.791c-9.486,0-17.128,7.642-17.128,17.128 c0,1.186,0.132,2.372,0.395,3.426C6.719,34.783,0,42.424,0,51.515C0,61.66,8.169,69.829,18.314,69.829h63.373 C91.831,69.829,100,61.66,100,51.515C99.868,42.556,93.281,35.046,84.717,33.597z" fill="#ffffff" transform="scale(0.7)"></path>
</g><g transform="translate(-100 729.6794701376023) rotate(0)">
  <animateTransform attributeName="transform" type="translate" keyTimes="0;1" values="-100 729.6794701376023;1707 729.6794701376023" dur="33.333333333333336s" repeatCount="indefinite" begin="-17.351554201789007s"></animateTransform>
  <path d="M84.717,33.597c0.791-2.503,1.186-5.138,1.186-7.773C85.903,11.594,74.308,0,60.079,0 c-9.881,0-18.445,5.534-22.793,13.702c-1.581-0.527-3.426-0.791-5.138-0.791c-9.486,0-17.128,7.642-17.128,17.128 c0,1.186,0.132,2.372,0.395,3.426C6.719,34.783,0,42.424,0,51.515C0,61.66,8.169,69.829,18.314,69.829h63.373 C91.831,69.829,100,61.66,100,51.515C99.868,42.556,93.281,35.046,84.717,33.597z" fill="#ffffff" transform="scale(0.7)"></path>
</g><g transform="translate(-100 782.1011482084551) rotate(0)">
  <animateTransform attributeName="transform" type="translate" keyTimes="0;1" values="-100 782.1011482084551;1707 782.1011482084551" dur="33.333333333333336s" repeatCount="indefinite" begin="-63.23998410818663s"></animateTransform>
  <path d="M84.717,33.597c0.791-2.503,1.186-5.138,1.186-7.773C85.903,11.594,74.308,0,60.079,0 c-9.881,0-18.445,5.534-22.793,13.702c-1.581-0.527-3.426-0.791-5.138-0.791c-9.486,0-17.128,7.642-17.128,17.128 c0,1.186,0.132,2.372,0.395,3.426C6.719,34.783,0,42.424,0,51.515C0,61.66,8.169,69.829,18.314,69.829h63.373 C91.831,69.829,100,61.66,100,51.515C99.868,42.556,93.281,35.046,84.717,33.597z" fill="#ffffff" transform="scale(0.7)"></path>
</g><g transform="translate(-100 150.27510513691658) rotate(0)">
  <animateTransform attributeName="transform" type="translate" keyTimes="0;1" values="-100 150.27510513691658;1707 150.27510513691658" dur="33.333333333333336s" repeatCount="indefinite" begin="-47.26363954795938s"></animateTransform>
  <path d="M84.717,33.597c0.791-2.503,1.186-5.138,1.186-7.773C85.903,11.594,74.308,0,60.079,0 c-9.881,0-18.445,5.534-22.793,13.702c-1.581-0.527-3.426-0.791-5.138-0.791c-9.486,0-17.128,7.642-17.128,17.128 c0,1.186,0.132,2.372,0.395,3.426C6.719,34.783,0,42.424,0,51.515C0,61.66,8.169,69.829,18.314,69.829h63.373 C91.831,69.829,100,61.66,100,51.515C99.868,42.556,93.281,35.046,84.717,33.597z" fill="#ffffff" transform="scale(0.7)"></path>
</g><g transform="translate(-100 421.5715948918594) rotate(0)">
  <animateTransform attributeName="transform" type="translate" keyTimes="0;1" values="-100 421.5715948918594;1707 421.5715948918594" dur="33.333333333333336s" repeatCount="indefinite" begin="-5.508304318649859s"></animateTransform>
  <path d="M84.717,33.597c0.791-2.503,1.186-5.138,1.186-7.773C85.903,11.594,74.308,0,60.079,0 c-9.881,0-18.445,5.534-22.793,13.702c-1.581-0.527-3.426-0.791-5.138-0.791c-9.486,0-17.128,7.642-17.128,17.128 c0,1.186,0.132,2.372,0.395,3.426C6.719,34.783,0,42.424,0,51.515C0,61.66,8.169,69.829,18.314,69.829h63.373 C91.831,69.829,100,61.66,100,51.515C99.868,42.556,93.281,35.046,84.717,33.597z" fill="#ffffff" transform="scale(0.7)"></path>
</g><g transform="translate(-100 863.6907156343929) rotate(0)">
  <animateTransform attributeName="transform" type="translate" keyTimes="0;1" values="-100 863.6907156343929;1707 863.6907156343929" dur="33.333333333333336s" repeatCount="indefinite" begin="-15.489825257123984s"></animateTransform>
  <path d="M84.717,33.597c0.791-2.503,1.186-5.138,1.186-7.773C85.903,11.594,74.308,0,60.079,0 c-9.881,0-18.445,5.534-22.793,13.702c-1.581-0.527-3.426-0.791-5.138-0.791c-9.486,0-17.128,7.642-17.128,17.128 c0,1.186,0.132,2.372,0.395,3.426C6.719,34.783,0,42.424,0,51.515C0,61.66,8.169,69.829,18.314,69.829h63.373 C91.831,69.829,100,61.66,100,51.515C99.868,42.556,93.281,35.046,84.717,33.597z" fill="#ffffff" transform="scale(0.7)"></path>
</g><g transform="translate(-100 86.56193119490247) rotate(0)">
  <animateTransform attributeName="transform" type="translate" keyTimes="0;1" values="-100 86.56193119490247;1707 86.56193119490247" dur="33.333333333333336s" repeatCount="indefinite" begin="-51.094824377327576s"></animateTransform>
  <path d="M84.717,33.597c0.791-2.503,1.186-5.138,1.186-7.773C85.903,11.594,74.308,0,60.079,0 c-9.881,0-18.445,5.534-22.793,13.702c-1.581-0.527-3.426-0.791-5.138-0.791c-9.486,0-17.128,7.642-17.128,17.128 c0,1.186,0.132,2.372,0.395,3.426C6.719,34.783,0,42.424,0,51.515C0,61.66,8.169,69.829,18.314,69.829h63.373 C91.831,69.829,100,61.66,100,51.515C99.868,42.556,93.281,35.046,84.717,33.597z" fill="#ffffff" transform="scale(0.7)"></path>
</g><g transform="translate(-100 815.3074387429423) rotate(0)">
  <animateTransform attributeName="transform" type="translate" keyTimes="0;1" values="-100 815.3074387429423;1707 815.3074387429423" dur="33.333333333333336s" repeatCount="indefinite" begin="-30.949482206897446s"></animateTransform>
  <path d="M84.717,33.597c0.791-2.503,1.186-5.138,1.186-7.773C85.903,11.594,74.308,0,60.079,0 c-9.881,0-18.445,5.534-22.793,13.702c-1.581-0.527-3.426-0.791-5.138-0.791c-9.486,0-17.128,7.642-17.128,17.128 c0,1.186,0.132,2.372,0.395,3.426C6.719,34.783,0,42.424,0,51.515C0,61.66,8.169,69.829,18.314,69.829h63.373 C91.831,69.829,100,61.66,100,51.515C99.868,42.556,93.281,35.046,84.717,33.597z" fill="#ffffff" transform="scale(0.7)"></path>
</g><g transform="translate(-100 344.73079138792224) rotate(0)">
  <animateTransform attributeName="transform" type="translate" keyTimes="0;1" values="-100 344.73079138792224;1707 344.73079138792224" dur="33.333333333333336s" repeatCount="indefinite" begin="-54.677456761292866s"></animateTransform>
  <path d="M84.717,33.597c0.791-2.503,1.186-5.138,1.186-7.773C85.903,11.594,74.308,0,60.079,0 c-9.881,0-18.445,5.534-22.793,13.702c-1.581-0.527-3.426-0.791-5.138-0.791c-9.486,0-17.128,7.642-17.128,17.128 c0,1.186,0.132,2.372,0.395,3.426C6.719,34.783,0,42.424,0,51.515C0,61.66,8.169,69.829,18.314,69.829h63.373 C91.831,69.829,100,61.66,100,51.515C99.868,42.556,93.281,35.046,84.717,33.597z" fill="#ffffff" transform="scale(0.7)"></path>
</g><g transform="translate(-100 857.4113222216971) rotate(0)">
  <animateTransform attributeName="transform" type="translate" keyTimes="0;1" values="-100 857.4113222216971;1707 857.4113222216971" dur="22.222222222222225s" repeatCount="indefinite" begin="-0.06612659419203601s"></animateTransform>
  <path d="M84.717,33.597c0.791-2.503,1.186-5.138,1.186-7.773C85.903,11.594,74.308,0,60.079,0 c-9.881,0-18.445,5.534-22.793,13.702c-1.581-0.527-3.426-0.791-5.138-0.791c-9.486,0-17.128,7.642-17.128,17.128 c0,1.186,0.132,2.372,0.395,3.426C6.719,34.783,0,42.424,0,51.515C0,61.66,8.169,69.829,18.314,69.829h63.373 C91.831,69.829,100,61.66,100,51.515C99.868,42.556,93.281,35.046,84.717,33.597z" fill="#f1f2f3" transform="scale(0.85)"></path>
</g><g transform="translate(-100 627.6006924229506) rotate(0)">
  <animateTransform attributeName="transform" type="translate" keyTimes="0;1" values="-100 627.6006924229506;1707 627.6006924229506" dur="22.222222222222225s" repeatCount="indefinite" begin="-41.16006085467681s"></animateTransform>
  <path d="M84.717,33.597c0.791-2.503,1.186-5.138,1.186-7.773C85.903,11.594,74.308,0,60.079,0 c-9.881,0-18.445,5.534-22.793,13.702c-1.581-0.527-3.426-0.791-5.138-0.791c-9.486,0-17.128,7.642-17.128,17.128 c0,1.186,0.132,2.372,0.395,3.426C6.719,34.783,0,42.424,0,51.515C0,61.66,8.169,69.829,18.314,69.829h63.373 C91.831,69.829,100,61.66,100,51.515C99.868,42.556,93.281,35.046,84.717,33.597z" fill="#f1f2f3" transform="scale(0.85)"></path>
</g><g transform="translate(-100 310.99408638814845) rotate(0)">
  <animateTransform attributeName="transform" type="translate" keyTimes="0;1" values="-100 310.99408638814845;1707 310.99408638814845" dur="22.222222222222225s" repeatCount="indefinite" begin="-41.999062697989295s"></animateTransform>
  <path d="M84.717,33.597c0.791-2.503,1.186-5.138,1.186-7.773C85.903,11.594,74.308,0,60.079,0 c-9.881,0-18.445,5.534-22.793,13.702c-1.581-0.527-3.426-0.791-5.138-0.791c-9.486,0-17.128,7.642-17.128,17.128 c0,1.186,0.132,2.372,0.395,3.426C6.719,34.783,0,42.424,0,51.515C0,61.66,8.169,69.829,18.314,69.829h63.373 C91.831,69.829,100,61.66,100,51.515C99.868,42.556,93.281,35.046,84.717,33.597z" fill="#f1f2f3" transform="scale(0.85)"></path>
</g><g transform="translate(-100 527.3110979706089) rotate(0)">
  <animateTransform attributeName="transform" type="translate" keyTimes="0;1" values="-100 527.3110979706089;1707 527.3110979706089" dur="22.222222222222225s" repeatCount="indefinite" begin="-17.805452889115763s"></animateTransform>
  <path d="M84.717,33.597c0.791-2.503,1.186-5.138,1.186-7.773C85.903,11.594,74.308,0,60.079,0 c-9.881,0-18.445,5.534-22.793,13.702c-1.581-0.527-3.426-0.791-5.138-0.791c-9.486,0-17.128,7.642-17.128,17.128 c0,1.186,0.132,2.372,0.395,3.426C6.719,34.783,0,42.424,0,51.515C0,61.66,8.169,69.829,18.314,69.829h63.373 C91.831,69.829,100,61.66,100,51.515C99.868,42.556,93.281,35.046,84.717,33.597z" fill="#f1f2f3" transform="scale(0.85)"></path>
</g><g transform="translate(-100 92.5293925023078) rotate(0)">
  <animateTransform attributeName="transform" type="translate" keyTimes="0;1" values="-100 92.5293925023078;1707 92.5293925023078" dur="22.222222222222225s" repeatCount="indefinite" begin="-36.39198471282956s"></animateTransform>
  <path d="M84.717,33.597c0.791-2.503,1.186-5.138,1.186-7.773C85.903,11.594,74.308,0,60.079,0 c-9.881,0-18.445,5.534-22.793,13.702c-1.581-0.527-3.426-0.791-5.138-0.791c-9.486,0-17.128,7.642-17.128,17.128 c0,1.186,0.132,2.372,0.395,3.426C6.719,34.783,0,42.424,0,51.515C0,61.66,8.169,69.829,18.314,69.829h63.373 C91.831,69.829,100,61.66,100,51.515C99.868,42.556,93.281,35.046,84.717,33.597z" fill="#f1f2f3" transform="scale(0.85)"></path>
</g><g transform="translate(-100 14.02029410617842) rotate(0)">
  <animateTransform attributeName="transform" type="translate" keyTimes="0;1" values="-100 14.02029410617842;1707 14.02029410617842" dur="22.222222222222225s" repeatCount="indefinite" begin="-6.269546905095514s"></animateTransform>
  <path d="M84.717,33.597c0.791-2.503,1.186-5.138,1.186-7.773C85.903,11.594,74.308,0,60.079,0 c-9.881,0-18.445,5.534-22.793,13.702c-1.581-0.527-3.426-0.791-5.138-0.791c-9.486,0-17.128,7.642-17.128,17.128 c0,1.186,0.132,2.372,0.395,3.426C6.719,34.783,0,42.424,0,51.515C0,61.66,8.169,69.829,18.314,69.829h63.373 C91.831,69.829,100,61.66,100,51.515C99.868,42.556,93.281,35.046,84.717,33.597z" fill="#f1f2f3" transform="scale(0.85)"></path>
</g><g transform="translate(-100 212.41345092980836) rotate(0)">
  <animateTransform attributeName="transform" type="translate" keyTimes="0;1" values="-100 212.41345092980836;1707 212.41345092980836" dur="22.222222222222225s" repeatCount="indefinite" begin="-58.35577291991629s"></animateTransform>
  <path d="M84.717,33.597c0.791-2.503,1.186-5.138,1.186-7.773C85.903,11.594,74.308,0,60.079,0 c-9.881,0-18.445,5.534-22.793,13.702c-1.581-0.527-3.426-0.791-5.138-0.791c-9.486,0-17.128,7.642-17.128,17.128 c0,1.186,0.132,2.372,0.395,3.426C6.719,34.783,0,42.424,0,51.515C0,61.66,8.169,69.829,18.314,69.829h63.373 C91.831,69.829,100,61.66,100,51.515C99.868,42.556,93.281,35.046,84.717,33.597z" fill="#f1f2f3" transform="scale(0.85)"></path>
</g><g transform="translate(-100 680.1223160810788) rotate(0)">
  <animateTransform attributeName="transform" type="translate" keyTimes="0;1" values="-100 680.1223160810788;1707 680.1223160810788" dur="22.222222222222225s" repeatCount="indefinite" begin="-13.257816714096235s"></animateTransform>
  <path d="M84.717,33.597c0.791-2.503,1.186-5.138,1.186-7.773C85.903,11.594,74.308,0,60.079,0 c-9.881,0-18.445,5.534-22.793,13.702c-1.581-0.527-3.426-0.791-5.138-0.791c-9.486,0-17.128,7.642-17.128,17.128 c0,1.186,0.132,2.372,0.395,3.426C6.719,34.783,0,42.424,0,51.515C0,61.66,8.169,69.829,18.314,69.829h63.373 C91.831,69.829,100,61.66,100,51.515C99.868,42.556,93.281,35.046,84.717,33.597z" fill="#f1f2f3" transform="scale(0.85)"></path>
</g><g transform="translate(-100 853.493872344386) rotate(0)">
  <animateTransform attributeName="transform" type="translate" keyTimes="0;1" values="-100 853.493872344386;1707 853.493872344386" dur="22.222222222222225s" repeatCount="indefinite" begin="-12.683614309289661s"></animateTransform>
  <path d="M84.717,33.597c0.791-2.503,1.186-5.138,1.186-7.773C85.903,11.594,74.308,0,60.079,0 c-9.881,0-18.445,5.534-22.793,13.702c-1.581-0.527-3.426-0.791-5.138-0.791c-9.486,0-17.128,7.642-17.128,17.128 c0,1.186,0.132,2.372,0.395,3.426C6.719,34.783,0,42.424,0,51.515C0,61.66,8.169,69.829,18.314,69.829h63.373 C91.831,69.829,100,61.66,100,51.515C99.868,42.556,93.281,35.046,84.717,33.597z" fill="#f1f2f3" transform="scale(0.85)"></path>
</g><g transform="translate(-100 652.5666146599104) rotate(0)">
  <animateTransform attributeName="transform" type="translate" keyTimes="0;1" values="-100 652.5666146599104;1707 652.5666146599104" dur="22.222222222222225s" repeatCount="indefinite" begin="-62.98514613411028s"></animateTransform>
  <path d="M84.717,33.597c0.791-2.503,1.186-5.138,1.186-7.773C85.903,11.594,74.308,0,60.079,0 c-9.881,0-18.445,5.534-22.793,13.702c-1.581-0.527-3.426-0.791-5.138-0.791c-9.486,0-17.128,7.642-17.128,17.128 c0,1.186,0.132,2.372,0.395,3.426C6.719,34.783,0,42.424,0,51.515C0,61.66,8.169,69.829,18.314,69.829h63.373 C91.831,69.829,100,61.66,100,51.515C99.868,42.556,93.281,35.046,84.717,33.597z" fill="#f1f2f3" transform="scale(0.85)"></path>
</g><g transform="translate(-100 422.75114114305063) rotate(0)">
  <animateTransform attributeName="transform" type="translate" keyTimes="0;1" values="-100 422.75114114305063;1707 422.75114114305063" dur="22.222222222222225s" repeatCount="indefinite" begin="-11.45276554130647s"></animateTransform>
  <path d="M84.717,33.597c0.791-2.503,1.186-5.138,1.186-7.773C85.903,11.594,74.308,0,60.079,0 c-9.881,0-18.445,5.534-22.793,13.702c-1.581-0.527-3.426-0.791-5.138-0.791c-9.486,0-17.128,7.642-17.128,17.128 c0,1.186,0.132,2.372,0.395,3.426C6.719,34.783,0,42.424,0,51.515C0,61.66,8.169,69.829,18.314,69.829h63.373 C91.831,69.829,100,61.66,100,51.515C99.868,42.556,93.281,35.046,84.717,33.597z" fill="#f1f2f3" transform="scale(0.85)"></path>
</g><g transform="translate(-100 604.0963832588869) rotate(0)">
  <animateTransform attributeName="transform" type="translate" keyTimes="0;1" values="-100 604.0963832588869;1707 604.0963832588869" dur="16.666666666666668s" repeatCount="indefinite" begin="-58.68057406638203s"></animateTransform>
  <path d="M84.717,33.597c0.791-2.503,1.186-5.138,1.186-7.773C85.903,11.594,74.308,0,60.079,0 c-9.881,0-18.445,5.534-22.793,13.702c-1.581-0.527-3.426-0.791-5.138-0.791c-9.486,0-17.128,7.642-17.128,17.128 c0,1.186,0.132,2.372,0.395,3.426C6.719,34.783,0,42.424,0,51.515C0,61.66,8.169,69.829,18.314,69.829h63.373 C91.831,69.829,100,61.66,100,51.515C99.868,42.556,93.281,35.046,84.717,33.597z" fill="#bddeff" transform="scale(1)"></path>
</g><g transform="translate(-100 585.8059544300492) rotate(0)">
  <animateTransform attributeName="transform" type="translate" keyTimes="0;1" values="-100 585.8059544300492;1707 585.8059544300492" dur="16.666666666666668s" repeatCount="indefinite" begin="-12.777459349243172s"></animateTransform>
  <path d="M84.717,33.597c0.791-2.503,1.186-5.138,1.186-7.773C85.903,11.594,74.308,0,60.079,0 c-9.881,0-18.445,5.534-22.793,13.702c-1.581-0.527-3.426-0.791-5.138-0.791c-9.486,0-17.128,7.642-17.128,17.128 c0,1.186,0.132,2.372,0.395,3.426C6.719,34.783,0,42.424,0,51.515C0,61.66,8.169,69.829,18.314,69.829h63.373 C91.831,69.829,100,61.66,100,51.515C99.868,42.556,93.281,35.046,84.717,33.597z" fill="#bddeff" transform="scale(1)"></path>
</g><g transform="translate(-100 484.7625557106368) rotate(0)">
  <animateTransform attributeName="transform" type="translate" keyTimes="0;1" values="-100 484.7625557106368;1707 484.7625557106368" dur="16.666666666666668s" repeatCount="indefinite" begin="-25.136554691163745s"></animateTransform>
  <path d="M84.717,33.597c0.791-2.503,1.186-5.138,1.186-7.773C85.903,11.594,74.308,0,60.079,0 c-9.881,0-18.445,5.534-22.793,13.702c-1.581-0.527-3.426-0.791-5.138-0.791c-9.486,0-17.128,7.642-17.128,17.128 c0,1.186,0.132,2.372,0.395,3.426C6.719,34.783,0,42.424,0,51.515C0,61.66,8.169,69.829,18.314,69.829h63.373 C91.831,69.829,100,61.66,100,51.515C99.868,42.556,93.281,35.046,84.717,33.597z" fill="#bddeff" transform="scale(1)"></path>
</g><g transform="translate(-100 470.61818582604013) rotate(0)">
  <animateTransform attributeName="transform" type="translate" keyTimes="0;1" values="-100 470.61818582604013;1707 470.61818582604013" dur="16.666666666666668s" repeatCount="indefinite" begin="-6.111975816689445s"></animateTransform>
  <path d="M84.717,33.597c0.791-2.503,1.186-5.138,1.186-7.773C85.903,11.594,74.308,0,60.079,0 c-9.881,0-18.445,5.534-22.793,13.702c-1.581-0.527-3.426-0.791-5.138-0.791c-9.486,0-17.128,7.642-17.128,17.128 c0,1.186,0.132,2.372,0.395,3.426C6.719,34.783,0,42.424,0,51.515C0,61.66,8.169,69.829,18.314,69.829h63.373 C91.831,69.829,100,61.66,100,51.515C99.868,42.556,93.281,35.046,84.717,33.597z" fill="#bddeff" transform="scale(1)"></path>
</g><g transform="translate(-100 794.1769803300343) rotate(0)">
  <animateTransform attributeName="transform" type="translate" keyTimes="0;1" values="-100 794.1769803300343;1707 794.1769803300343" dur="16.666666666666668s" repeatCount="indefinite" begin="-62.84060247825988s"></animateTransform>
  <path d="M84.717,33.597c0.791-2.503,1.186-5.138,1.186-7.773C85.903,11.594,74.308,0,60.079,0 c-9.881,0-18.445,5.534-22.793,13.702c-1.581-0.527-3.426-0.791-5.138-0.791c-9.486,0-17.128,7.642-17.128,17.128 c0,1.186,0.132,2.372,0.395,3.426C6.719,34.783,0,42.424,0,51.515C0,61.66,8.169,69.829,18.314,69.829h63.373 C91.831,69.829,100,61.66,100,51.515C99.868,42.556,93.281,35.046,84.717,33.597z" fill="#bddeff" transform="scale(1)"></path>
</g><g transform="translate(-100 338.6141314164753) rotate(0)">
  <animateTransform attributeName="transform" type="translate" keyTimes="0;1" values="-100 338.6141314164753;1707 338.6141314164753" dur="16.666666666666668s" repeatCount="indefinite" begin="-30.085752623309876s"></animateTransform>
  <path d="M84.717,33.597c0.791-2.503,1.186-5.138,1.186-7.773C85.903,11.594,74.308,0,60.079,0 c-9.881,0-18.445,5.534-22.793,13.702c-1.581-0.527-3.426-0.791-5.138-0.791c-9.486,0-17.128,7.642-17.128,17.128 c0,1.186,0.132,2.372,0.395,3.426C6.719,34.783,0,42.424,0,51.515C0,61.66,8.169,69.829,18.314,69.829h63.373 C91.831,69.829,100,61.66,100,51.515C99.868,42.556,93.281,35.046,84.717,33.597z" fill="#bddeff" transform="scale(1)"></path>
</g><g transform="translate(-100 388.7979158105914) rotate(0)">
  <animateTransform attributeName="transform" type="translate" keyTimes="0;1" values="-100 388.7979158105914;1707 388.7979158105914" dur="16.666666666666668s" repeatCount="indefinite" begin="-24.421483270735962s"></animateTransform>
  <path d="M84.717,33.597c0.791-2.503,1.186-5.138,1.186-7.773C85.903,11.594,74.308,0,60.079,0 c-9.881,0-18.445,5.534-22.793,13.702c-1.581-0.527-3.426-0.791-5.138-0.791c-9.486,0-17.128,7.642-17.128,17.128 c0,1.186,0.132,2.372,0.395,3.426C6.719,34.783,0,42.424,0,51.515C0,61.66,8.169,69.829,18.314,69.829h63.373 C91.831,69.829,100,61.66,100,51.515C99.868,42.556,93.281,35.046,84.717,33.597z" fill="#bddeff" transform="scale(1)"></path>
</g><g transform="translate(-100 317.18864368124196) rotate(0)">
  <animateTransform attributeName="transform" type="translate" keyTimes="0;1" values="-100 317.18864368124196;1707 317.18864368124196" dur="16.666666666666668s" repeatCount="indefinite" begin="-0.010119967101163141s"></animateTransform>
  <path d="M84.717,33.597c0.791-2.503,1.186-5.138,1.186-7.773C85.903,11.594,74.308,0,60.079,0 c-9.881,0-18.445,5.534-22.793,13.702c-1.581-0.527-3.426-0.791-5.138-0.791c-9.486,0-17.128,7.642-17.128,17.128 c0,1.186,0.132,2.372,0.395,3.426C6.719,34.783,0,42.424,0,51.515C0,61.66,8.169,69.829,18.314,69.829h63.373 C91.831,69.829,100,61.66,100,51.515C99.868,42.556,93.281,35.046,84.717,33.597z" fill="#bddeff" transform="scale(1)"></path>
</g><g transform="translate(-100 583.6001855905613) rotate(0)">
  <animateTransform attributeName="transform" type="translate" keyTimes="0;1" values="-100 583.6001855905613;1707 583.6001855905613" dur="16.666666666666668s" repeatCount="indefinite" begin="-43.68135444252072s"></animateTransform>
  <path d="M84.717,33.597c0.791-2.503,1.186-5.138,1.186-7.773C85.903,11.594,74.308,0,60.079,0 c-9.881,0-18.445,5.534-22.793,13.702c-1.581-0.527-3.426-0.791-5.138-0.791c-9.486,0-17.128,7.642-17.128,17.128 c0,1.186,0.132,2.372,0.395,3.426C6.719,34.783,0,42.424,0,51.515C0,61.66,8.169,69.829,18.314,69.829h63.373 C91.831,69.829,100,61.66,100,51.515C99.868,42.556,93.281,35.046,84.717,33.597z" fill="#bddeff" transform="scale(1)"></path>
</g><g transform="translate(-100 9.881190150221604) rotate(0)">
  <animateTransform attributeName="transform" type="translate" keyTimes="0;1" values="-100 9.881190150221604;1707 9.881190150221604" dur="16.666666666666668s" repeatCount="indefinite" begin="-9.758784112646612s"></animateTransform>
  <path d="M84.717,33.597c0.791-2.503,1.186-5.138,1.186-7.773C85.903,11.594,74.308,0,60.079,0 c-9.881,0-18.445,5.534-22.793,13.702c-1.581-0.527-3.426-0.791-5.138-0.791c-9.486,0-17.128,7.642-17.128,17.128 c0,1.186,0.132,2.372,0.395,3.426C6.719,34.783,0,42.424,0,51.515C0,61.66,8.169,69.829,18.314,69.829h63.373 C91.831,69.829,100,61.66,100,51.515C99.868,42.556,93.281,35.046,84.717,33.597z" fill="#bddeff" transform="scale(1)"></path>
</g><g transform="translate(-100 465.8549187737978) rotate(0)">
  <animateTransform attributeName="transform" type="translate" keyTimes="0;1" values="-100 465.8549187737978;1707 465.8549187737978" dur="16.666666666666668s" repeatCount="indefinite" begin="-28.815715187184384s"></animateTransform>
  <path d="M84.717,33.597c0.791-2.503,1.186-5.138,1.186-7.773C85.903,11.594,74.308,0,60.079,0 c-9.881,0-18.445,5.534-22.793,13.702c-1.581-0.527-3.426-0.791-5.138-0.791c-9.486,0-17.128,7.642-17.128,17.128 c0,1.186,0.132,2.372,0.395,3.426C6.719,34.783,0,42.424,0,51.515C0,61.66,8.169,69.829,18.314,69.829h63.373 C91.831,69.829,100,61.66,100,51.515C99.868,42.556,93.281,35.046,84.717,33.597z" fill="#bddeff" transform="scale(1)"></path>
</g><g transform="translate(-100 309.83955146649396) rotate(0)">
  <animateTransform attributeName="transform" type="translate" keyTimes="0;1" values="-100 309.83955146649396;1707 309.83955146649396" dur="16.666666666666668s" repeatCount="indefinite" begin="-64.24674338943794s"></animateTransform>
  <path d="M84.717,33.597c0.791-2.503,1.186-5.138,1.186-7.773C85.903,11.594,74.308,0,60.079,0 c-9.881,0-18.445,5.534-22.793,13.702c-1.581-0.527-3.426-0.791-5.138-0.791c-9.486,0-17.128,7.642-17.128,17.128 c0,1.186,0.132,2.372,0.395,3.426C6.719,34.783,0,42.424,0,51.515C0,61.66,8.169,69.829,18.314,69.829h63.373 C91.831,69.829,100,61.66,100,51.515C99.868,42.556,93.281,35.046,84.717,33.597z" fill="#bddeff" transform="scale(1)"></path>
</g></g>
</svg>