<?xml version="1.0" encoding="utf-8"?><svg xmlns="http://www.w3.org/2000/svg" xmlns:xlink="http://www.w3.org/1999/xlink" width="1000" height="500" preserveAspectRatio="xMidYMid" viewBox="0 0 1000 500" style="z-index:1;margin-right:-2px;display:block;background-repeat-y:initial;background-repeat-x:initial;background-color:rgb(153, 204, 255);animation-play-state:paused" ><g transform="translate(500,250) scale(1,1) translate(-500,-250)" style="transform:matrix(1, 0, 0, 1, 0, 0);animation-play-state:paused" ><defs style="animation-play-state:paused" ><linearGradient id="lg-0.8703617986987999" x1="0" x2="0" y1="0" y2="1" style="animation-play-state:paused" ><stop stop-color="#3184ce" offset="0" style="animation-play-state:paused" ></stop>

  
<stop stop-color="#e9f6ff" offset="1" style="animation-play-state:paused" ></stop></linearGradient></defs>


<rect x="0" y="0" width="1000" height="500" fill="url(#lg-0.8703617986987999)" style="animation-play-state:paused" ></rect>
<circle cx="0" cy="50.9700985841049" r="64.19158451324591" fill="#91cbf0" transform="matrix(1,0,0,1,0,0)" style="transform:matrix(1, 0, 0, 1, 0, 0);animation-play-state:paused" ></circle>
<circle cx="64.19158451324591" cy="51.380168624068205" r="73.2545049739681" fill="#91cbf0" transform="matrix(1,0,0,1,-0.005429744720458984,0)" style="transform:matrix(1, 0, 0, 1, -0.00542974, 0);animation-play-state:paused" ></circle>
<circle cx="137.446089487214" cy="82.06710656721668" r="52.78857858662677" fill="#91cbf0" transform="matrix(1,0,0,1,-0.022117653861641884,0)" style="transform:matrix(1, 0, 0, 1, -0.0221177, 0);animation-play-state:paused" ></circle>
<circle cx="190.2346680738408" cy="87.14138131089825" r="54.95910193672228" fill="#91cbf0" transform="matrix(1,0,0,1,-0.05069183558225632,0)" style="transform:matrix(1, 0, 0, 1, -0.0506918, 0);animation-play-state:paused" ></circle>
<circle cx="245.19377001056307" cy="73.06478384629386" r="89.83168660486228" fill="#91cbf0" transform="matrix(1,0,0,1,-0.09182170033454895,0)" style="transform:matrix(1, 0, 0, 1, -0.0918217, 0);animation-play-state:paused" ></circle>
<circle cx="335.02545661542536" cy="94.97259823076905" r="83.41539925809514" fill="#91cbf0" transform="matrix(1,0,0,1,-0.14621886610984802,0)" style="transform:matrix(1, 0, 0, 1, -0.146219, 0);animation-play-state:paused" ></circle>
<circle cx="418.4408558735205" cy="116.03853020165532" r="61.1083625593389" fill="#91cbf0" transform="matrix(1,0,0,1,-0.21463720500469208,0)" style="transform:matrix(1, 0, 0, 1, -0.214637, 0);animation-play-state:paused" ></circle>
<circle cx="479.5492184328594" cy="125.20732888879577" r="56.898214827711065" fill="#91cbf0" transform="matrix(1,0,0,1,-0.2978716492652893,0)" style="transform:matrix(1, 0, 0, 1, -0.297872, 0);animation-play-state:paused" ></circle>
<circle cx="536.4474332605705" cy="120.76488154597409" r="82.71179667509656" fill="#91cbf0" transform="matrix(1,0,0,1,-0.3967548906803131,0)" style="transform:matrix(1, 0, 0, 1, -0.396755, 0);animation-play-state:paused" ></circle>
<circle cx="619.1592299356671" cy="113.84995699213734" r="49.47876263097053" fill="#91cbf0" transform="matrix(1,0,0,1,-0.5121519565582275,0)" style="transform:matrix(1, 0, 0, 1, -0.512152, 0);animation-play-state:paused" ></circle>
<circle cx="668.6379925666376" cy="107.88459275744873" r="49.70066090584199" fill="#91cbf0" transform="matrix(1,0,0,1,-0.6449503302574158,0)" style="transform:matrix(1, 0, 0, 1, -0.64495, 0);animation-play-state:paused" ></circle>
<circle cx="718.3386534724797" cy="86.47585894994995" r="79.24261307996771" fill="#91cbf0" transform="matrix(1,0,0,1,-0.7960466146469116,0)" style="transform:matrix(1, 0, 0, 1, -0.796047, 0);animation-play-state:paused" ></circle>
<circle cx="797.5812665524473" cy="66.81543687102244" r="85.66926361244649" fill="#91cbf0" transform="matrix(1,0,0,1,-0.9663257002830505,0)" style="transform:matrix(1, 0, 0, 1, -0.966326, 0);animation-play-state:paused" ></circle>
<circle cx="883.2505301648938" cy="72.9814404060786" r="59.815702853528585" fill="#91cbf0" transform="matrix(1,0,0,1,-1.156632423400879,0)" style="transform:matrix(1, 0, 0, 1, -1.15663, 0);animation-play-state:paused" ></circle>
<circle cx="943.0662330184224" cy="55.333827187906564" r="68.33644667247754" fill="#91cbf0" transform="matrix(1,0,0,1,-1.3677335977554321,0)" style="transform:matrix(1, 0, 0, 1, -1.36773, 0);animation-play-state:paused" ></circle>
<circle cx="1011.4026796909" cy="31.81379584149559" r="78.36796062599251" fill="#91cbf0" transform="matrix(1,0,0,1,-1.600266933441162,0)" style="transform:matrix(1, 0, 0, 1, -1.60027, 0);animation-play-state:paused" ></circle>
<circle cx="0" cy="91.944017230932" r="81.71331897422333" fill="#a8d1f5" transform="matrix(1,0,0,1,0,0)" style="transform:matrix(1, 0, 0, 1, 0, 0);animation-play-state:paused" ></circle>
<circle cx="81.71331897422333" cy="112.36671975549362" r="77.33260839802902" fill="#a8d1f5" transform="matrix(1,0,0,1,-0.022117653861641884,0)" style="transform:matrix(1, 0, 0, 1, -0.0221177, 0);animation-play-state:paused" ></circle>
<circle cx="159.04592737225235" cy="143.90582314883386" r="56.32989473713711" fill="#a8d1f5" transform="matrix(1,0,0,1,-0.09182170033454895,0)" style="transform:matrix(1, 0, 0, 1, -0.0918217, 0);animation-play-state:paused" ></circle>
<circle cx="215.37582210938945" cy="148.49445983165455" r="60.76073789061771" fill="#a8d1f5" transform="matrix(1,0,0,1,-0.21463720500469208,0)" style="transform:matrix(1, 0, 0, 1, -0.214637, 0);animation-play-state:paused" ></circle>
<circle cx="276.13656000000714" cy="141.83106314097034" r="89.65461425023071" fill="#a8d1f5" transform="matrix(1,0,0,1,-0.3967548906803131,0)" style="transform:matrix(1, 0, 0, 1, -0.396755, 0);animation-play-state:paused" ></circle>
<circle cx="365.7911742502379" cy="169.38678671076786" r="63.9960809025156" fill="#a8d1f5" transform="matrix(1,0,0,1,-0.6449503302574158,0)" style="transform:matrix(1, 0, 0, 1, -0.64495, 0);animation-play-state:paused" ></circle>
<circle cx="429.78725515275346" cy="182.28224576473247" r="45.799817944128925" fill="#a8d1f5" transform="matrix(1,0,0,1,-0.9663257002830505,0)" style="transform:matrix(1, 0, 0, 1, -0.966326, 0);animation-play-state:paused" ></circle>
<circle cx="475.58707309688236" cy="185.60966136040466" r="74.931931503242" fill="#a8d1f5" transform="matrix(1,0,0,1,-1.3677335977554321,0)" style="transform:matrix(1, 0, 0, 1, -1.36773, 0);animation-play-state:paused" ></circle>
<circle cx="550.5190046001244" cy="179.3702448776237" r="87.67125697311447" fill="#a8d1f5" transform="matrix(1,0,0,1,-1.8546782732009888,0)" style="transform:matrix(1, 0, 0, 1, -1.85468, 0);animation-play-state:paused" ></circle>
<circle cx="638.1902615732389" cy="175.60604392571258" r="43.400176172625386" fill="#a8d1f5" transform="matrix(1,0,0,1,-2.4294803142547607,0)" style="transform:matrix(1, 0, 0, 1, -2.42948, 0);animation-play-state:paused" ></circle>
<circle cx="681.5904377458643" cy="162.90552024919666" r="62.16938899962446" fill="#a8d1f5" transform="matrix(1,0,0,1,-3.0886495113372803,0)" style="transform:matrix(1, 0, 0, 1, -3.08865, 0);animation-play-state:paused" ></circle>
<circle cx="743.7598267454887" cy="168.09368669405313" r="37.44517981494445" fill="#a8d1f5" transform="matrix(1,0,0,1,-3.819972276687622,0)" style="transform:matrix(1, 0, 0, 1, -3.81997, 0);animation-play-state:paused" ></circle>
<circle cx="781.2050065604332" cy="140.79422266470542" r="72.90911166132912" fill="#a8d1f5" transform="matrix(1,0,0,1,-4.60075569152832,0)" style="transform:matrix(1, 0, 0, 1, -4.60076, 0);animation-play-state:paused" ></circle>
<circle cx="854.1141182217623" cy="116.64518540508396" r="86.31258825459803" fill="#a8d1f5" transform="matrix(1,0,0,1,-5.399243354797363,0)" style="transform:matrix(1, 0, 0, 1, -5.39924, 0);animation-play-state:paused" ></circle>
<circle cx="940.4267064763603" cy="123.72150560173563" r="62.70291725393457" fill="#a8d1f5" transform="matrix(1,0,0,1,-6.180027961730957,0)" style="transform:matrix(1, 0, 0, 1, -6.18003, 0);animation-play-state:paused" ></circle>
<circle cx="1003.129623730295" cy="93.05730252838282" r="80.28306962665863" fill="#a8d1f5" transform="matrix(1,0,0,1,-6.911351203918457,0)" style="transform:matrix(1, 0, 0, 1, -6.91135, 0);animation-play-state:paused" ></circle>
<circle cx="0" cy="160.75994002321318" r="76.03338331398903" fill="#bdd7f8" transform="matrix(1,0,0,1,0,0)" style="transform:matrix(1, 0, 0, 1, 0, 0);animation-play-state:paused" ></circle>
<circle cx="76.03338331398903" cy="189.52090102765408" r="61.40332016854076" fill="#bdd7f8" transform="matrix(1,0,0,1,-0.05069185048341751,0)" style="transform:matrix(1, 0, 0, 1, -0.0506919, 0);animation-play-state:paused" ></circle>
<circle cx="137.4367034825298" cy="211.90830033597246" r="46.07436831159368" fill="#bdd7f8" transform="matrix(1,0,0,1,-0.21463724970817566,0)" style="transform:matrix(1, 0, 0, 1, -0.214637, 0);animation-play-state:paused" ></circle>
<circle cx="183.51107179412347" cy="221.0178242531341" r="40.788914695082106" fill="#bdd7f8" transform="matrix(1,0,0,1,-0.5121520161628723,0)" style="transform:matrix(1, 0, 0, 1, -0.512152, 0);animation-play-state:paused" ></circle>
<circle cx="224.29998648920557" cy="218.817152880047" r="50.149385645347756" fill="#bdd7f8" transform="matrix(1,0,0,1,-0.9663259983062744,0)" style="transform:matrix(1, 0, 0, 1, -0.966326, 0);animation-play-state:paused" ></circle>
<circle cx="274.4493721345533" cy="211.06802780742626" r="75.61490107554312" fill="#bdd7f8" transform="matrix(1,0,0,1,-1.6002674102783203,0)" style="transform:matrix(1, 0, 0, 1, -1.60027, 0);animation-play-state:paused" ></circle>
<circle cx="350.0642732100964" cy="221.64645219028594" r="84.35155421698003" fill="#bdd7f8" transform="matrix(1,0,0,1,-2.429480791091919,0)" style="transform:matrix(1, 0, 0, 1, -2.42948, 0);animation-play-state:paused" ></circle>
<circle cx="434.41582742707647" cy="238.47953525065074" r="85.89766033308666" fill="#bdd7f8" transform="matrix(1,0,0,1,-3.4464619159698486,0)" style="transform:matrix(1, 0, 0, 1, -3.44646, 0);animation-play-state:paused" ></circle>
<circle cx="520.3134877601631" cy="248.35394212076068" r="74.7872940852471" fill="#bdd7f8" transform="matrix(1,0,0,1,-4.600757122039795,0)" style="transform:matrix(1, 0, 0, 1, -4.60076, 0);animation-play-state:paused" ></circle>
<circle cx="595.1007818454102" cy="231.88543586315737" r="88.12828062733307" fill="#bdd7f8" transform="matrix(1,0,0,1,-5.794002532958984,0)" style="transform:matrix(1, 0, 0, 1, -5.794, 0);animation-play-state:paused" ></circle>
<circle cx="683.2290624727433" cy="220.03075686296953" r="72.69871817274745" fill="#bdd7f8" transform="matrix(1,0,0,1,-6.911351680755615,0)" style="transform:matrix(1, 0, 0, 1, -6.91135, 0);animation-play-state:paused" ></circle>
<circle cx="755.9277806454908" cy="200.9715830928901" r="83.0775007087417" fill="#bdd7f8" transform="matrix(1,0,0,1,-7.868857383728027,0)" style="transform:matrix(1, 0, 0, 1, -7.86886, 0);animation-play-state:paused" ></circle>
<circle cx="839.0052813542325" cy="198.74276332239555" r="65.4577273654564" fill="#bdd7f8" transform="matrix(1,0,0,1,-8.632266998291016,0)" style="transform:matrix(1, 0, 0, 1, -8.63227, 0);animation-play-state:paused" ></circle>
<circle cx="904.4630087196889" cy="172.13889962361912" r="82.2707089963327" fill="#bdd7f8" transform="matrix(1,0,0,1,-9.203954696655273,0)" style="transform:matrix(1, 0, 0, 1, -9.20395, 0);animation-play-state:paused" ></circle>
<circle cx="986.7337177160216" cy="204.88886190591882" r="40.329322087331704" fill="#bdd7f8" transform="matrix(1,0,0,1,-9.603245735168457,0)" style="transform:matrix(1, 0, 0, 1, -9.60325, 0);animation-play-state:paused" ></circle>
<circle cx="1027.0630398033534" cy="142.19091614978703" r="86.80894216118706" fill="#bdd7f8" transform="matrix(1,0,0,1,-9.853781700134277,0)" style="transform:matrix(1, 0, 0, 1, -9.85378, 0);animation-play-state:paused" ></circle>
<circle cx="0" cy="209.55216663196842" r="87.0398611400263" fill="#cfddfa" transform="matrix(1,0,0,1,0,0)" style="transform:matrix(1, 0, 0, 1, 0, 0);animation-play-state:paused" ></circle>
<circle cx="87.0398611400263" cy="233.74823179629124" r="80.97206874216869" fill="#cfddfa" transform="matrix(1,0,0,1,-0.09182170033454895,0)" style="transform:matrix(1, 0, 0, 1, -0.0918217, 0);animation-play-state:paused" ></circle>
<circle cx="168.01192988219498" cy="288.04390371548425" r="32.5765926309055" fill="#cfddfa" transform="matrix(1,0,0,1,-0.3967548906803131,0)" style="transform:matrix(1, 0, 0, 1, -0.396755, 0);animation-play-state:paused" ></circle>
<circle cx="200.5885225131005" cy="270.48157934780977" r="60.56105605550576" fill="#cfddfa" transform="matrix(1,0,0,1,-0.9663257002830505,0)" style="transform:matrix(1, 0, 0, 1, -0.966326, 0);animation-play-state:paused" ></circle>
<circle cx="261.1495785686062" cy="262.0594248725892" r="90.60861677945223" fill="#cfddfa" transform="matrix(1,0,0,1,-1.8546782732009888,0)" style="transform:matrix(1, 0, 0, 1, -1.85468, 0);animation-play-state:paused" ></circle>
<circle cx="351.75819534805845" cy="289.2981213467851" r="69.43014126821585" fill="#cfddfa" transform="matrix(1,0,0,1,-3.0886495113372803,0)" style="transform:matrix(1, 0, 0, 1, -3.08865, 0);animation-play-state:paused" ></circle>
<circle cx="421.1883366162743" cy="301.9804563067607" r="63.54571126271316" fill="#cfddfa" transform="matrix(1,0,0,1,-4.60075569152832,0)" style="transform:matrix(1, 0, 0, 1, -4.60076, 0);animation-play-state:paused" ></circle>
<circle cx="484.73404787898744" cy="311.6495561778969" r="64.15267025467455" fill="#cfddfa" transform="matrix(1,0,0,1,-6.180027961730957,0)" style="transform:matrix(1, 0, 0, 1, -6.18003, 0);animation-play-state:paused" ></circle>
<circle cx="548.886718133662" cy="310.1531188416539" r="32.787374782010225" fill="#cfddfa" transform="matrix(1,0,0,1,-7.57051944732666,0)" style="transform:matrix(1, 0, 0, 1, -7.57052, 0);animation-play-state:paused" ></circle>
<circle cx="581.6740929156723" cy="307.14717907583423" r="34.96019300372082" fill="#cfddfa" transform="matrix(1,0,0,1,-8.632266998291016,0)" style="transform:matrix(1, 0, 0, 1, -8.63227, 0);animation-play-state:paused" ></circle>
<circle cx="616.6342859193932" cy="304.8104041029712" r="32.82909703819799" fill="#cfddfa" transform="matrix(1,0,0,1,-9.355050086975098,0)" style="transform:matrix(1, 0, 0, 1, -9.35505, 0);animation-play-state:paused" ></circle>
<circle cx="649.4633829575912" cy="281.8103295306452" r="89.73677987316887" fill="#cfddfa" transform="matrix(1,0,0,1,-9.785362243652344,0)" style="transform:matrix(1, 0, 0, 1, -9.78536, 0);animation-play-state:paused" ></circle>
<circle cx="739.2001628307601" cy="282.33448314229673" r="55.15868050103047" fill="#cfddfa" transform="matrix(1,0,0,1,-9.977882385253906,0)" style="transform:matrix(1, 0, 0, 1, -9.97788, 0);animation-play-state:paused" ></circle>
<circle cx="794.3588433317906" cy="266.7800932218066" r="66.84005459079641" fill="#cfddfa" transform="matrix(1,0,0,1,-9.977882385253906,0)" style="transform:matrix(1, 0, 0, 1, -9.97788, 0);animation-play-state:paused" ></circle>
<circle cx="861.198897922587" cy="251.92285428974964" r="71.6100672732798" fill="#cfddfa" transform="matrix(1,0,0,1,-9.78536319732666,0)" style="transform:matrix(1, 0, 0, 1, -9.78536, 0);animation-play-state:paused" ></circle>
<circle cx="932.8089651958668" cy="238.3985175848369" r="72.78180492109048" fill="#cfddfa" transform="matrix(1,0,0,1,-9.355049133300781,0)" style="transform:matrix(1, 0, 0, 1, -9.35505, 0);animation-play-state:paused" ></circle>
<circle cx="1005.5907701169573" cy="246.09014009002044" r="55.96576645563738" fill="#cfddfa" transform="matrix(1,0,0,1,-8.632266998291016,0)" style="transform:matrix(1, 0, 0, 1, -8.63227, 0);animation-play-state:paused" ></circle>
<circle cx="0" cy="317.36601866141376" r="48.86165111548852" fill="#dfe5fb" transform="matrix(1,0,0,1,0,0)" style="transform:matrix(1, 0, 0, 1, 0, 0);animation-play-state:paused" ></circle>
<circle cx="48.86165111548852" cy="305.264932584761" r="65.3301694019687" fill="#dfe5fb" transform="matrix(1,0,0,1,-0.14621886610984802,0)" style="transform:matrix(1, 0, 0, 1, -0.146219, 0);animation-play-state:paused" ></circle>
<circle cx="114.19182051745722" cy="291.7604523934736" r="90.97736483917018" fill="#dfe5fb" transform="matrix(1,0,0,1,-0.6449503302574158,0)" style="transform:matrix(1, 0, 0, 1, -0.64495, 0);animation-play-state:paused" ></circle>
<circle cx="205.1691853566274" cy="330.29383606212855" r="64.59377388062039" fill="#dfe5fb" transform="matrix(1,0,0,1,-1.600266933441162,0)" style="transform:matrix(1, 0, 0, 1, -1.60027, 0);animation-play-state:paused" ></circle>
<circle cx="269.7629592372478" cy="349.52071659455044" r="47.920329047486526" fill="#dfe5fb" transform="matrix(1,0,0,1,-3.0886495113372803,0)" style="transform:matrix(1, 0, 0, 1, -3.08865, 0);animation-play-state:paused" ></circle>
<circle cx="317.6832882847343" cy="337.04648999522766" r="89.02436324105842" fill="#dfe5fb" transform="matrix(1,0,0,1,-5,0)" style="transform:matrix(1, 0, 0, 1, -5, 0);animation-play-state:paused" ></circle>
<circle cx="406.70765152579276" cy="366.3189350610619" r="43.23802673920355" fill="#dfe5fb" transform="matrix(1,0,0,1,-6.911351203918457,0)" style="transform:matrix(1, 0, 0, 1, -6.91135, 0);animation-play-state:paused" ></circle>
<circle cx="449.94567826499633" cy="369.96100349680296" r="50.270355401482334" fill="#dfe5fb" transform="matrix(1,0,0,1,-8.39973258972168,0)" style="transform:matrix(1, 0, 0, 1, -8.39973, 0);animation-play-state:paused" ></circle>
<circle cx="500.21603366647867" cy="375.970960009688" r="56.00976996123001" fill="#dfe5fb" transform="matrix(1,0,0,1,-9.355050086975098,0)" style="transform:matrix(1, 0, 0, 1, -9.35505, 0);animation-play-state:paused" ></circle>
<circle cx="556.2258036277087" cy="370.76204599801804" r="38.81635642969463" fill="#dfe5fb" transform="matrix(1,0,0,1,-9.853780746459961,0)" style="transform:matrix(1, 0, 0, 1, -9.85378, 0);animation-play-state:paused" ></circle>
<circle cx="595.0421600574034" cy="359.7591355037714" r="71.20026385491907" fill="#dfe5fb" transform="matrix(1,0,0,1,-10,0)" style="transform:matrix(1, 0, 0, 1, -10, 0);animation-play-state:paused" ></circle>
<circle cx="666.2424239123225" cy="361.14946089350843" r="37.22109243888475" fill="#dfe5fb" transform="matrix(1,0,0,1,-9.853780746459961,0)" style="transform:matrix(1, 0, 0, 1, -9.85378, 0);animation-play-state:paused" ></circle>
<circle cx="703.4635163512072" cy="330.85549576107945" r="92.45003938239773" fill="#dfe5fb" transform="matrix(1,0,0,1,-9.355049133300781,0)" style="transform:matrix(1, 0, 0, 1, -9.35505, 0);animation-play-state:paused" ></circle>
<circle cx="795.9135557336049" cy="351.42412355465717" r="34.60452662774026" fill="#dfe5fb" transform="matrix(1,0,0,1,-8.399733543395996,0)" style="transform:matrix(1, 0, 0, 1, -8.39973, 0);animation-play-state:paused" ></circle>
<circle cx="830.5180823613451" cy="343.0412616350386" r="41.54933840216824" fill="#dfe5fb" transform="matrix(1,0,0,1,-6.911350727081299,0)" style="transform:matrix(1, 0, 0, 1, -6.91135, 0);animation-play-state:paused" ></circle>
<circle cx="872.0674207635134" cy="348.19628351527615" r="31.136512422565254" fill="#dfe5fb" transform="matrix(1,0,0,1,-5,0)" style="transform:matrix(1, 0, 0, 1, -5, 0);animation-play-state:paused" ></circle>
<circle cx="903.2039331860786" cy="309.2349156977415" r="68.99432975794576" fill="#dfe5fb" transform="matrix(1,0,0,1,-3.088648796081543,0)" style="transform:matrix(1, 0, 0, 1, -3.08865, 0);animation-play-state:paused" ></circle>
<circle cx="972.1982629440245" cy="338.6861741053567" r="32.92563458232037" fill="#dfe5fb" transform="matrix(1,0,0,1,-1.600266456604004,0)" style="transform:matrix(1, 0, 0, 1, -1.60027, 0);animation-play-state:paused" ></circle>
<circle cx="1005.1238975263449" cy="288.0494323493628" r="72.5486757484502" fill="#dfe5fb" transform="matrix(1,0,0,1,-0.6449508666992188,0)" style="transform:matrix(1, 0, 0, 1, -0.644951, 0);animation-play-state:paused" ></circle>
<circle cx="1077.672573274795" cy="313.9025315970896" r="44.789983746677315" fill="#dfe5fb" transform="matrix(1,0,0,1,-0.14621925354003906,0)" style="transform:matrix(1, 0, 0, 1, -0.146219, 0);animation-play-state:paused" ></circle>
<circle cx="0" cy="327.5568264989047" r="92.03597791757946" fill="#ecedfc" transform="matrix(1,0,0,1,0,0)" style="transform:matrix(1, 0, 0, 1, 0, 0);animation-play-state:paused" ></circle>
<circle cx="92.03597791757946" cy="397.83780480984615" r="41.01893081276817" fill="#ecedfc" transform="matrix(1,0,0,1,-0.2146373838186264,0)" style="transform:matrix(1, 0, 0, 1, -0.214637, 0);animation-play-state:paused" ></circle>
<circle cx="133.05490873034762" cy="392.1159114098997" r="52.10144705771754" fill="#ecedfc" transform="matrix(1,0,0,1,-0.9663266539573669,0)" style="transform:matrix(1, 0, 0, 1, -0.966327, 0);animation-play-state:paused" ></circle>
<circle cx="185.15635578806516" cy="371.8642523964439" r="87.5245919937714" fill="#ecedfc" transform="matrix(1,0,0,1,-2.4294822216033936,0)" style="transform:matrix(1, 0, 0, 1, -2.42948, 0);animation-play-state:paused" ></circle>
<circle cx="272.68094778183655" cy="402.928031457447" r="64.28550569548835" fill="#ecedfc" transform="matrix(1,0,0,1,-4.600759983062744,0)" style="transform:matrix(1, 0, 0, 1, -4.60076, 0);animation-play-state:paused" ></circle>
<circle cx="336.9664534773249" cy="425.26138953354393" r="32.556209898096874" fill="#ecedfc" transform="matrix(1,0,0,1,-6.911355018615723,0)" style="transform:matrix(1, 0, 0, 1, -6.91136, 0);animation-play-state:paused" ></circle>
<circle cx="369.52266337542176" cy="421.0432374790908" r="54.1497696061539" fill="#ecedfc" transform="matrix(1,0,0,1,-8.632269859313965,0)" style="transform:matrix(1, 0, 0, 1, -8.63227, 0);animation-play-state:paused" ></circle>
<circle cx="423.67243298157564" cy="429.7805539579332" r="44.869361332686324" fill="#ecedfc" transform="matrix(1,0,0,1,-9.603246688842773,0)" style="transform:matrix(1, 0, 0, 1, -9.60325, 0);animation-play-state:paused" ></circle>
<circle cx="468.54179431426195" cy="432.48917112697274" r="72.99140707620532" fill="#ecedfc" transform="matrix(1,0,0,1,-9.977882385253906,0)" style="transform:matrix(1, 0, 0, 1, -9.97788, 0);animation-play-state:paused" ></circle>
<circle cx="541.5332013904673" cy="429.5798299515806" r="84.47227927020957" fill="#ecedfc" transform="matrix(1,0,0,1,-9.908177375793457,0)" style="transform:matrix(1, 0, 0, 1, -9.90818, 0);animation-play-state:paused" ></circle>
<circle cx="626.0054806606769" cy="410.6212009652527" r="90.53441859299073" fill="#ecedfc" transform="matrix(1,0,0,1,-9.355046272277832,0)" style="transform:matrix(1, 0, 0, 1, -9.35505, 0);animation-play-state:paused" ></circle>
<circle cx="716.5398992536676" cy="392.11433157411454" r="88.29332874302513" fill="#ecedfc" transform="matrix(1,0,0,1,-8.14531421661377,0)" style="transform:matrix(1, 0, 0, 1, -8.14531, 0);animation-play-state:paused" ></circle>
<circle cx="804.8332279966927" cy="398.25607103658433" r="54.32468930717377" fill="#ecedfc" transform="matrix(1,0,0,1,-6.180017471313477,0)" style="transform:matrix(1, 0, 0, 1, -6.18002, 0);animation-play-state:paused" ></circle>
<circle cx="859.1579173038665" cy="369.7746163766882" r="79.14970492583903" fill="#ecedfc" transform="matrix(1,0,0,1,-3.8199596405029297,0)" style="transform:matrix(1, 0, 0, 1, -3.81996, 0);animation-play-state:paused" ></circle>
<circle cx="938.3076222297055" cy="349.54921362745426" r="84.08362632256392" fill="#ecedfc" transform="matrix(1,0,0,1,-1.8546695709228516,0)" style="transform:matrix(1, 0, 0, 1, -1.85467, 0);animation-play-state:paused" ></circle>
<circle cx="1022.3912485522694" cy="329.0211537949345" r="86.92307290997917" fill="#ecedfc" transform="matrix(1,0,0,1,-0.6449451446533203,0)" style="transform:matrix(1, 0, 0, 1, -0.644945, 0);animation-play-state:paused" ></circle>
<circle cx="0" cy="436.19371034953804" r="53.17190804205163" fill="#f7f5fd" transform="matrix(1,0,0,1,0,0)" style="transform:matrix(1, 0, 0, 1, 0, 0);animation-play-state:paused" ></circle>
<circle cx="53.17190804205163" cy="451.34048820091607" r="45.374937135464926" fill="#f7f5fd" transform="matrix(1,0,0,1,-0.297871857881546,0)" style="transform:matrix(1, 0, 0, 1, -0.297872, 0);animation-play-state:paused" ></circle>
<circle cx="98.54684517751656" cy="444.8704470017669" r="57.21874845585509" fill="#f7f5fd" transform="matrix(1,0,0,1,-1.3677345514297485,0)" style="transform:matrix(1, 0, 0, 1, -1.36773, 0);animation-play-state:paused" ></circle>
<circle cx="155.76559363337165" cy="427.98071279485447" r="87.1732626968064" fill="#f7f5fd" transform="matrix(1,0,0,1,-3.4464633464813232,0)" style="transform:matrix(1, 0, 0, 1, -3.44646, 0);animation-play-state:paused" ></circle>
<circle cx="242.93885633017806" cy="453.67927564996904" r="75.08058797599868" fill="#f7f5fd" transform="matrix(1,0,0,1,-6.1800312995910645,0)" style="transform:matrix(1, 0, 0, 1, -6.18003, 0);animation-play-state:paused" ></circle>
<circle cx="318.01944430617675" cy="485.1445117050427" r="34.01345141499446" fill="#f7f5fd" transform="matrix(1,0,0,1,-8.399735450744629,0)" style="transform:matrix(1, 0, 0, 1, -8.39974, 0);animation-play-state:paused" ></circle>
<circle cx="352.0328957211712" cy="470.9550643475694" r="81.7888312461734" fill="#f7f5fd" transform="matrix(1,0,0,1,-9.603246688842773,0)" style="transform:matrix(1, 0, 0, 1, -9.60325, 0);animation-play-state:paused" ></circle>
<circle cx="433.8217269673446" cy="494.1501094618728" r="36.831640947831985" fill="#f7f5fd" transform="matrix(1,0,0,1,-9.9945707321167,0)" style="transform:matrix(1, 0, 0, 1, -9.99457, 0);animation-play-state:paused" ></circle>
<circle cx="470.6533679151766" cy="493.7830221830173" r="88.26932563353421" fill="#f7f5fd" transform="matrix(1,0,0,1,-9.785361289978027,0)" style="transform:matrix(1, 0, 0, 1, -9.78536, 0);animation-play-state:paused" ></circle>
<circle cx="558.9226935487109" cy="492.7415790887215" r="51.32728774297882" fill="#f7f5fd" transform="matrix(1,0,0,1,-8.843363761901855,0)" style="transform:matrix(1, 0, 0, 1, -8.84336, 0);animation-play-state:paused" ></circle>
<circle cx="610.2499812916897" cy="483.9212738928158" r="60.7661709583594" fill="#f7f5fd" transform="matrix(1,0,0,1,-6.911342620849609,0)" style="transform:matrix(1, 0, 0, 1, -6.91134, 0);animation-play-state:paused" ></circle>
<circle cx="671.0161522500491" cy="467.35422656425453" r="79.53871853191215" fill="#f7f5fd" transform="matrix(1,0,0,1,-4.205990791320801,0)" style="transform:matrix(1, 0, 0, 1, -4.20599, 0);animation-play-state:paused" ></circle>
<circle cx="750.5548707819613" cy="480.1987365174492" r="32.92902039905916" fill="#f7f5fd" transform="matrix(1,0,0,1,-1.8546714782714844,0)" style="transform:matrix(1, 0, 0, 1, -1.85467, 0);animation-play-state:paused" ></circle>
<circle cx="783.4838911810205" cy="439.38035970880685" r="89.09918425853355" fill="#f7f5fd" transform="matrix(1,0,0,1,-0.5121488571166992,0)" style="transform:matrix(1, 0, 0, 1, -0.512149, 0);animation-play-state:paused" ></circle>
<circle cx="872.583075439554" cy="431.6486056992729" r="76.43865087458427" fill="#f7f5fd" transform="matrix(1,0,0,1,-0.022116661071777344,0)" style="transform:matrix(1, 0, 0, 1, -0.0221167, 0);animation-play-state:paused" ></circle>
<circle cx="949.0217263141383" cy="466.1472083964785" r="31.41346845415769" fill="#f7f5fd" transform="matrix(1,0,0,1,-0.14622078835964203,0)" style="transform:matrix(1, 0, 0, 1, -0.146221, 0);animation-play-state:paused" ></circle>
<circle cx="980.435194768296" cy="453.763509571548" r="40.09948595560229" fill="#f7f5fd" transform="matrix(1,0,0,1,-0.9663317203521729,0)" style="transform:matrix(1, 0, 0, 1, -0.966332, 0);animation-play-state:paused" ></circle>
<circle cx="1020.5346807238983" cy="447.9994977369294" r="41.62426970824371" fill="#f7f5fd" transform="matrix(1,0,0,1,-2.749058246612549,0)" style="transform:matrix(1, 0, 0, 1, -2.74906, 0);animation-play-state:paused" ></circle>
<circle cx="1062.158950432142" cy="418.66850150653704" r="60.282104102809015" fill="#f7f5fd" transform="matrix(1,0,0,1,-5.399258613586426,0)" style="transform:matrix(1, 0, 0, 1, -5.39926, 0);animation-play-state:paused" ></circle>
<circle cx="0" cy="470.4728461571446" r="76.27262820237951" fill="#ffffff" transform="matrix(1,0,0,1,0,0)" style="transform:matrix(1, 0, 0, 1, 0, 0);animation-play-state:paused" ></circle>
<circle cx="76.27262820237951" cy="524.9655188790581" r="36.4173636811044" fill="#ffffff" transform="matrix(1,0,0,1,-0.3967548906803131,0)" style="transform:matrix(1, 0, 0, 1, -0.396755, 0);animation-play-state:paused" ></circle>
<circle cx="112.68999188348391" cy="515.8198101825182" r="49.680476502160346" fill="#ffffff" transform="matrix(1,0,0,1,-1.8546782732009888,0)" style="transform:matrix(1, 0, 0, 1, -1.85468, 0);animation-play-state:paused" ></circle>
<circle cx="162.37046838564424" cy="488.2646333231868" r="90.9963927082196" fill="#ffffff" transform="matrix(1,0,0,1,-4.60075569152832,0)" style="transform:matrix(1, 0, 0, 1, -4.60076, 0);animation-play-state:paused" ></circle>
<circle cx="253.36686109386386" cy="513.7194953189249" r="81.56599327920836" fill="#ffffff" transform="matrix(1,0,0,1,-7.57051944732666,0)" style="transform:matrix(1, 0, 0, 1, -7.57052, 0);animation-play-state:paused" ></circle>
<circle cx="334.93285437307225" cy="547.9614143874637" r="35.43655310494368" fill="#ffffff" transform="matrix(1,0,0,1,-9.355050086975098,0)" style="transform:matrix(1, 0, 0, 1, -9.35505, 0);animation-play-state:paused" ></circle>
<circle cx="370.36940747801594" cy="550.3444563901357" r="37.4639690340573" fill="#ffffff" transform="matrix(1,0,0,1,-9.977882385253906,0)" style="transform:matrix(1, 0, 0, 1, -9.97788, 0);animation-play-state:paused" ></circle>
<circle cx="407.83337651207324" cy="545.4743877374194" r="74.70895119616965" fill="#ffffff" transform="matrix(1,0,0,1,-9.78536319732666,0)" style="transform:matrix(1, 0, 0, 1, -9.78536, 0);animation-play-state:paused" ></circle>
<circle cx="482.5423277082429" cy="559.5678220973997" r="58.04940329274595" fill="#ffffff" transform="matrix(1,0,0,1,-8.632266998291016,0)" style="transform:matrix(1, 0, 0, 1, -8.63227, 0);animation-play-state:paused" ></circle>
<circle cx="540.5917310009888" cy="553.975785261645" r="82.36709115870076" fill="#ffffff" transform="matrix(1,0,0,1,-6.180026531219482,0)" style="transform:matrix(1, 0, 0, 1, -6.18003, 0);animation-play-state:paused" ></circle>
<circle cx="622.9588221596896" cy="546.2257617346515" r="53.45366165505832" fill="#ffffff" transform="matrix(1,0,0,1,-3.088648796081543,0)" style="transform:matrix(1, 0, 0, 1, -3.08865, 0);animation-play-state:paused" ></circle>
<circle cx="676.4124838147479" cy="525.4533024415709" r="86.31923501137403" fill="#ffffff" transform="matrix(1,0,0,1,-0.9663257598876953,0)" style="transform:matrix(1, 0, 0, 1, -0.966326, 0);animation-play-state:paused" ></circle>
<circle cx="762.731718826122" cy="530.7646703596073" r="49.5361608474469" fill="#ffffff" transform="matrix(1,0,0,1,-0.09182167053222656,0)" style="transform:matrix(1, 0, 0, 1, -0.0918217, 0);animation-play-state:paused" ></circle>
<circle cx="812.2678796735689" cy="504.0202597514861" r="77.36378499383734" fill="#ffffff" transform="matrix(1,0,0,1,-0.09182170033454895,0)" style="transform:matrix(1, 0, 0, 1, -0.0918217, 0);animation-play-state:paused" ></circle>
<circle cx="889.6316646674063" cy="504.18681940164606" r="61.824608813240644" fill="#ffffff" transform="matrix(1,0,0,1,-0.9663257002830505,0)" style="transform:matrix(1, 0, 0, 1, -0.966326, 0);animation-play-state:paused" ></circle>
<circle cx="951.4562734806469" cy="511.36570163076635" r="46.7323760014566" fill="#ffffff" transform="matrix(1,0,0,1,-3.0886495113372803,0)" style="transform:matrix(1, 0, 0, 1, -3.08865, 0);animation-play-state:paused" ></circle>
<circle cx="998.1886494821035" cy="491.72638205028153" r="58.77426989987634" fill="#ffffff" transform="matrix(1,0,0,1,-6.180027961730957,0)" style="transform:matrix(1, 0, 0, 1, -6.18003, 0);animation-play-state:paused" ></circle>
<circle cx="1056.9629193819799" cy="494.9197316303308" r="50.18307475784862" fill="#ffffff" transform="matrix(1,0,0,1,-8.632266998291016,0)" style="transform:matrix(1, 0, 0, 1, -8.63227, 0);animation-play-state:paused" ></circle></g></svg>